<svg width="521" height="194" viewBox="0 0 521 194" fill="none" xmlns="http://www.w3.org/2000/svg">
<g clip-path="url(#clip0_2_11)">
<path d="M112.211 33.9168C115.638 39.3767 117.471 44.6573 119.606 49.6615C120.379 51.5222 121.106 51.8701 123.017 51.2742C130.242 49.1032 137.633 47.3815 145.235 47.8312C147.345 47.9419 149.489 48.3098 151.522 48.8235C160.01 51.1974 164.239 58.1476 162.658 67.0796C161.076 76.0116 156.198 83.3943 150.703 90.2833C148.888 92.5687 149.154 93.5806 151.055 95.657C155.28 100.225 159.474 104.954 162.996 110.139C165.05 113.164 166.338 116.92 167.11 120.535C168.586 127.461 164.522 134.08 157.88 136.697C148.799 140.268 139.505 139.704 130.141 138.416C127.692 138.116 126.826 138.493 126.22 141.01C124.012 150.156 121.062 159.036 114.427 166.208C109.212 171.855 101.476 172.759 94.984 168.468C88.7182 164.304 84.8187 158.253 81.6068 151.664C80.4429 149.227 79.2789 146.79 78.4357 144.206C77.7573 142.071 76.884 141.611 74.7008 142.322C67.4599 144.574 60.1022 146.344 52.4656 145.637C49.4209 145.389 46.292 144.708 43.5608 143.476C36.7895 140.427 34.0359 134.72 35.1479 127.369C36.5335 118.149 41.4755 110.653 46.9031 103.459C49.3066 100.283 49.3392 100.331 46.4822 97.5708C39.8107 91.1567 33.6193 84.4165 31.2536 75.1483C29.0392 66.6192 32.5698 59.731 40.7692 56.6179C48.1179 53.802 55.7319 53.7526 63.3857 54.5882C70.9589 55.4085 70.8629 55.4737 72.8925 48.1316C75.1241 39.9506 78.3097 32.2444 84.7943 26.2967C89.4581 22.0067 96.3927 21.5768 101.876 24.5882C106.438 27.173 109.811 30.0738 112.211 33.9168V33.9168ZM75.719 110.97C75.8222 111.742 76.411 112.816 77.1058 113.116C84.2358 116.693 91.4773 120.124 98.6554 123.668C100.563 124.617 102.09 124.282 103.77 123.141C109.787 118.984 115.837 114.875 121.919 110.815C123.648 109.641 124.328 108.266 124.182 106.191C123.585 98.5978 123.117 90.9874 122.392 83.4114C122.252 82.1731 121.144 80.5406 119.996 79.987C113.108 76.4564 106.362 72.6187 99.1584 69.8635C97.834 69.3597 97.5595 69.2655 96.4308 69.0498C92.905 70.8832 88.2458 73.837 84.9329 76.0871C81.956 78.1088 77.3521 81.8671 74.5401 84.3382L75.719 110.97ZM108.286 38.0555C106.443 35.2381 104.071 32.7794 101.899 31.0273C96.7276 26.8219 90.5612 26.73 85.785 32.9206C80.8186 39.4509 78.5507 47.1653 76.9604 55.051C76.8046 55.6479 77.7331 56.9117 78.3952 57.1636C83.8196 58.9521 89.2748 60.5794 94.7453 62.126C95.6974 62.3915 97.049 62.3155 97.9631 61.9052C103.079 59.6235 108.097 57.1979 113.18 54.8682C114.783 54.13 115.404 53.2875 114.568 51.54C112.355 46.9389 110.879 41.9773 108.286 38.0555V38.0555ZM41.6299 136.087C43.303 137.827 45.8539 138.691 48.1132 139.331C56.7779 141.655 65.1457 139.41 73.4329 137.15C75.2474 136.619 75.3344 135.507 74.9169 133.756C73.5339 128.311 72.4082 122.831 71.0578 117.434C70.874 116.647 70.4482 115.813 69.8169 115.4C65.0385 111.98 60.1487 108.706 55.3703 105.286C54.0423 104.364 53.1573 104.403 52.1698 105.635C47.313 111.81 42.7959 118.176 40.9311 125.967C40.1537 129.161 38.8363 133.213 41.6299 136.087V136.087ZM128.271 132.46C136.397 133.887 144.438 134.881 152.485 132.783C161.496 130.452 164.086 124.554 160.278 116.055C157.34 109.56 152.469 104.66 147.613 99.679C145.663 97.6352 144.314 97.9205 142.398 99.8526C138.935 103.327 135.195 106.499 131.619 109.91C130.756 110.706 129.897 111.921 129.778 112.985C129.108 119.333 128.728 125.695 128.271 132.46V132.46ZM69.6233 61.0865C61.4342 59.7725 53.2948 58.6352 45.1843 60.846C36.4632 63.1908 33.8566 68.9603 37.5821 77.2349C40.7496 84.2747 45.9472 89.6551 51.4656 94.8878C52.9104 96.292 53.8037 95.3345 54.8736 94.3272C58.4983 90.8833 62.2687 87.5507 65.8282 84.0107C66.9135 82.9228 68.0758 81.4318 68.2571 80.0458C68.8807 73.9392 69.1818 67.771 69.6233 61.0865V61.0865ZM121.342 137.237C114.885 135.167 108.75 133.159 102.585 131.313C101.633 131.047 100.267 131.413 99.3053 131.856C95.1843 133.743 91.2436 135.998 87.0574 137.789C81.4598 140.188 82.5043 139.969 84.4924 144.653C87.5159 151.79 90.86 158.78 97.4365 163.505C101.956 166.75 106.83 166.386 110.515 162.411C117.102 155.271 119.278 146.285 121.342 137.237ZM156.433 58.3275C154.801 55.7175 152.637 55.0117 150.459 54.3865C141.422 51.8242 132.668 54.121 124.047 56.8192C123.469 57.0012 122.886 58.5195 123.037 59.2587C124.23 65.0437 125.567 70.731 126.984 76.4336C127.151 77.0922 127.592 77.845 128.143 78.2428C133.002 81.6782 137.941 85.129 142.912 88.4185C143.511 88.7836 145.119 88.6732 145.55 88.1705C150.933 81.4273 156.138 74.5247 157.333 65.6444C157.538 63.2601 157.902 60.6974 156.433 58.3275ZM80.5913 134.673C85.3057 132.524 89.6033 130.587 93.901 128.651C93.834 128.346 93.7343 127.992 93.6193 127.72C88.3816 125.173 83.0959 122.659 77.8582 120.112C77.6507 120.323 77.4106 120.486 77.2032 120.697C78.2873 125.083 79.3388 129.42 80.5913 134.673V134.673ZM68.0618 89.159C64.6772 92.4399 60.8143 96.2562 57.1262 99.8134C61.4671 102.899 65.1439 105.524 68.8688 108.116L69.589 107.627L68.0618 89.159ZM129.767 104.292C132.85 101.496 135.311 99.334 137.673 97.0278C140.947 93.8927 140.864 93.668 137.268 91.0589C135.389 89.7389 133.526 88.3383 131.599 87.0509C130.709 86.4629 129.755 85.9882 128.315 85.2118C128.822 91.7433 129.274 97.4703 129.767 104.292V104.292ZM120.069 73.4828C120.309 73.3197 120.549 73.1567 120.822 73.0416C119.772 68.9135 118.722 64.7853 117.544 60.6743C117.427 60.1923 116.199 59.6234 115.797 59.7556C111.851 61.3833 108.036 63.203 104.107 64.9593C104.174 65.2646 104.208 65.5218 104.227 65.8597C109.513 68.3739 114.799 70.888 120.069 73.4828V73.4828ZM108.823 126.655L108.782 127.525C112.139 128.542 115.496 129.56 118.902 130.545C122.387 131.545 122.499 131.399 122.918 127.677C123.155 125.341 123.458 123.1 123.647 120.797C123.717 119.556 123.626 118.285 123.644 116.659C118.33 120.198 113.576 123.427 108.823 126.655V126.655ZM73.8973 76.9869L89.7419 66.2258C84.6264 64.7888 80.2692 63.5384 75.3956 62.1476C74.8916 67.1907 74.4475 71.702 73.8973 76.9869Z" fill="#562F72"/>
<path d="M106.29 107.327C100.081 111.614 92.3737 110.183 88.2324 104.086C84.1888 98.1318 85.6831 90.3113 91.6042 86.2198C97.798 82.0132 105.634 83.4268 109.71 89.4285C113.786 95.4303 112.292 103.251 106.29 107.327Z" fill="#562F72"/>
</g>
<path d="M204.16 61.8107V70.4317H213.558V73.2067H204.16V82.0867H214.668V84.8617H200.793V59.0357H214.668V61.8107H204.16ZM216.84 74.6867C216.84 72.59 217.259 70.7647 218.098 69.2107C218.937 67.632 220.096 66.411 221.576 65.5477C223.081 64.6843 224.795 64.2527 226.719 64.2527C229.21 64.2527 231.258 64.857 232.861 66.0657C234.489 67.2743 235.562 68.9517 236.08 71.0977H232.454C232.109 69.8643 231.43 68.89 230.419 68.1747C229.432 67.4593 228.199 67.1017 226.719 67.1017C224.795 67.1017 223.241 67.7677 222.057 69.0997C220.873 70.407 220.281 72.2693 220.281 74.6867C220.281 77.1287 220.873 79.0157 222.057 80.3477C223.241 81.6797 224.795 82.3457 226.719 82.3457C228.199 82.3457 229.432 82.0003 230.419 81.3097C231.406 80.619 232.084 79.6323 232.454 78.3497H236.08C235.537 80.4217 234.452 82.0867 232.824 83.3447C231.196 84.578 229.161 85.1947 226.719 85.1947C224.795 85.1947 223.081 84.763 221.576 83.8997C220.096 83.0363 218.937 81.8153 218.098 80.2367C217.259 78.658 216.84 76.808 216.84 74.6867ZM247.751 85.1947C245.851 85.1947 244.125 84.763 242.571 83.8997C241.041 83.0363 239.833 81.8153 238.945 80.2367C238.081 78.6333 237.65 76.7833 237.65 74.6867C237.65 72.6147 238.094 70.7893 238.982 69.2107C239.894 67.6073 241.128 66.3863 242.682 65.5477C244.236 64.6843 245.975 64.2527 247.899 64.2527C249.823 64.2527 251.562 64.6843 253.116 65.5477C254.67 66.3863 255.891 67.595 256.779 69.1737C257.691 70.7523 258.148 72.59 258.148 74.6867C258.148 76.7833 257.679 78.6333 256.742 80.2367C255.829 81.8153 254.583 83.0363 253.005 83.8997C251.426 84.763 249.675 85.1947 247.751 85.1947ZM247.751 82.2347C248.959 82.2347 250.094 81.951 251.155 81.3837C252.215 80.8163 253.066 79.9653 253.708 78.8307C254.374 77.696 254.707 76.3147 254.707 74.6867C254.707 73.0587 254.386 71.6773 253.745 70.5427C253.103 69.408 252.265 68.5693 251.229 68.0267C250.193 67.4593 249.07 67.1757 247.862 67.1757C246.628 67.1757 245.494 67.4593 244.458 68.0267C243.446 68.5693 242.632 69.408 242.016 70.5427C241.399 71.6773 241.091 73.0587 241.091 74.6867C241.091 76.3393 241.387 77.733 241.979 78.8677C242.595 80.0023 243.409 80.8533 244.421 81.4207C245.432 81.9633 246.542 82.2347 247.751 82.2347ZM285.292 64.2157C286.871 64.2157 288.277 64.5487 289.51 65.2147C290.744 65.856 291.718 66.8303 292.433 68.1377C293.149 69.445 293.506 71.036 293.506 72.9107V84.8617H290.176V73.3917C290.176 71.369 289.671 69.8273 288.659 68.7667C287.673 67.6813 286.328 67.1387 284.626 67.1387C282.875 67.1387 281.481 67.706 280.445 68.8407C279.409 69.9507 278.891 71.5663 278.891 73.6877V84.8617H275.561V73.3917C275.561 71.369 275.056 69.8273 274.044 68.7667C273.058 67.6813 271.713 67.1387 270.011 67.1387C268.26 67.1387 266.866 67.706 265.83 68.8407C264.794 69.9507 264.276 71.5663 264.276 73.6877V84.8617H260.909V64.5857H264.276V67.5087C264.942 66.448 265.83 65.634 266.94 65.0667C268.075 64.4993 269.321 64.2157 270.677 64.2157C272.379 64.2157 273.884 64.598 275.191 65.3627C276.499 66.1273 277.473 67.2497 278.114 68.7297C278.682 67.299 279.619 66.189 280.926 65.3997C282.234 64.6103 283.689 64.2157 285.292 64.2157ZM321.748 64.2157C323.326 64.2157 324.732 64.5487 325.966 65.2147C327.199 65.856 328.173 66.8303 328.889 68.1377C329.604 69.445 329.962 71.036 329.962 72.9107V84.8617H326.632V73.3917C326.632 71.369 326.126 69.8273 325.115 68.7667C324.128 67.6813 322.784 67.1387 321.082 67.1387C319.33 67.1387 317.937 67.706 316.901 68.8407C315.865 69.9507 315.347 71.5663 315.347 73.6877V84.8617H312.017V73.3917C312.017 71.369 311.511 69.8273 310.5 68.7667C309.513 67.6813 308.169 67.1387 306.467 67.1387C304.715 67.1387 303.322 67.706 302.286 68.8407C301.25 69.9507 300.732 71.5663 300.732 73.6877V84.8617H297.365V64.5857H300.732V67.5087C301.398 66.448 302.286 65.634 303.396 65.0667C304.53 64.4993 305.776 64.2157 307.133 64.2157C308.835 64.2157 310.339 64.598 311.647 65.3627C312.954 66.1273 313.928 67.2497 314.57 68.7297C315.137 67.299 316.074 66.189 317.382 65.3997C318.689 64.6103 320.144 64.2157 321.748 64.2157ZM352.32 73.9467C352.32 74.588 352.283 75.2663 352.209 75.9817H336.003C336.126 77.9797 336.804 79.546 338.038 80.6807C339.296 81.7907 340.813 82.3457 342.589 82.3457C344.044 82.3457 345.253 82.0127 346.215 81.3467C347.201 80.656 347.892 79.7433 348.287 78.6087H351.913C351.37 80.5573 350.285 82.1483 348.657 83.3817C347.029 84.5903 345.006 85.1947 342.589 85.1947C340.665 85.1947 338.938 84.763 337.409 83.8997C335.904 83.0363 334.72 81.8153 333.857 80.2367C332.993 78.6333 332.562 76.7833 332.562 74.6867C332.562 72.59 332.981 70.7523 333.82 69.1737C334.658 67.595 335.83 66.3863 337.335 65.5477C338.864 64.6843 340.615 64.2527 342.589 64.2527C344.513 64.2527 346.215 64.672 347.695 65.5107C349.175 66.3493 350.309 67.5087 351.099 68.9887C351.913 70.444 352.32 72.0967 352.32 73.9467ZM348.842 73.2437C348.842 71.961 348.558 70.8633 347.991 69.9507C347.423 69.0133 346.646 68.3103 345.66 67.8417C344.698 67.3483 343.625 67.1017 342.441 67.1017C340.739 67.1017 339.283 67.6443 338.075 68.7297C336.891 69.815 336.212 71.3197 336.04 73.2437H348.842ZM358.466 67.8787C359.058 66.7193 359.897 65.819 360.982 65.1777C362.092 64.5363 363.436 64.2157 365.015 64.2157V67.6937H364.127C360.353 67.6937 358.466 69.741 358.466 73.8357V84.8617H355.099V64.5857H358.466V67.8787ZM365.979 74.6867C365.979 72.59 366.398 70.7647 367.237 69.2107C368.075 67.632 369.235 66.411 370.715 65.5477C372.219 64.6843 373.934 64.2527 375.858 64.2527C378.349 64.2527 380.396 64.857 382 66.0657C383.628 67.2743 384.701 68.9517 385.219 71.0977H381.593C381.247 69.8643 380.569 68.89 379.558 68.1747C378.571 67.4593 377.338 67.1017 375.858 67.1017C373.934 67.1017 372.38 67.7677 371.196 69.0997C370.012 70.407 369.42 72.2693 369.42 74.6867C369.42 77.1287 370.012 79.0157 371.196 80.3477C372.38 81.6797 373.934 82.3457 375.858 82.3457C377.338 82.3457 378.571 82.0003 379.558 81.3097C380.544 80.619 381.223 79.6323 381.593 78.3497H385.219C384.676 80.4217 383.591 82.0867 381.963 83.3447C380.335 84.578 378.3 85.1947 375.858 85.1947C373.934 85.1947 372.219 84.763 370.715 83.8997C369.235 83.0363 368.075 81.8153 367.237 80.2367C366.398 78.658 365.979 76.808 365.979 74.6867ZM406.546 73.9467C406.546 74.588 406.509 75.2663 406.435 75.9817H390.229C390.353 77.9797 391.031 79.546 392.264 80.6807C393.522 81.7907 395.039 82.3457 396.815 82.3457C398.271 82.3457 399.479 82.0127 400.441 81.3467C401.428 80.656 402.119 79.7433 402.513 78.6087H406.139C405.597 80.5573 404.511 82.1483 402.883 83.3817C401.255 84.5903 399.233 85.1947 396.815 85.1947C394.891 85.1947 393.165 84.763 391.635 83.8997C390.131 83.0363 388.947 81.8153 388.083 80.2367C387.22 78.6333 386.788 76.7833 386.788 74.6867C386.788 72.59 387.208 70.7523 388.046 69.1737C388.885 67.595 390.057 66.3863 391.561 65.5477C393.091 64.6843 394.842 64.2527 396.815 64.2527C398.739 64.2527 400.441 64.672 401.921 65.5107C403.401 66.3493 404.536 67.5087 405.325 68.9887C406.139 70.444 406.546 72.0967 406.546 73.9467ZM403.068 73.2437C403.068 71.961 402.785 70.8633 402.217 69.9507C401.65 69.0133 400.873 68.3103 399.886 67.8417C398.924 67.3483 397.851 67.1017 396.667 67.1017C394.965 67.1017 393.51 67.6443 392.301 68.7297C391.117 69.815 390.439 71.3197 390.266 73.2437H403.068ZM425.554 59.0727C428.366 59.0727 430.796 59.603 432.843 60.6637C434.915 61.6997 436.494 63.192 437.579 65.1407C438.689 67.0893 439.244 69.3833 439.244 72.0227C439.244 74.662 438.689 76.956 437.579 78.9047C436.494 80.8287 434.915 82.3087 432.843 83.3447C430.796 84.356 428.366 84.8617 425.554 84.8617H417.525V59.0727H425.554ZM425.554 82.0867C428.884 82.0867 431.425 81.211 433.176 79.4597C434.927 77.6837 435.803 75.2047 435.803 72.0227C435.803 68.816 434.915 66.3123 433.139 64.5117C431.388 62.711 428.859 61.8107 425.554 61.8107H420.892V82.0867H425.554ZM460.52 73.9467C460.52 74.588 460.483 75.2663 460.409 75.9817H444.203C444.326 77.9797 445.005 79.546 446.238 80.6807C447.496 81.7907 449.013 82.3457 450.789 82.3457C452.244 82.3457 453.453 82.0127 454.415 81.3467C455.402 80.656 456.092 79.7433 456.487 78.6087H460.113C459.57 80.5573 458.485 82.1483 456.857 83.3817C455.229 84.5903 453.206 85.1947 450.789 85.1947C448.865 85.1947 447.138 84.763 445.609 83.8997C444.104 83.0363 442.92 81.8153 442.057 80.2367C441.194 78.6333 440.762 76.7833 440.762 74.6867C440.762 72.59 441.181 70.7523 442.02 69.1737C442.859 67.595 444.03 66.3863 445.535 65.5477C447.064 64.6843 448.816 64.2527 450.789 64.2527C452.713 64.2527 454.415 64.672 455.895 65.5107C457.375 66.3493 458.51 67.5087 459.299 68.9887C460.113 70.444 460.52 72.0967 460.52 73.9467ZM457.042 73.2437C457.042 71.961 456.758 70.8633 456.191 69.9507C455.624 69.0133 454.847 68.3103 453.86 67.8417C452.898 67.3483 451.825 67.1017 450.641 67.1017C448.939 67.1017 447.484 67.6443 446.275 68.7297C445.091 69.815 444.413 71.3197 444.24 73.2437H457.042ZM487.682 64.2157C489.261 64.2157 490.667 64.5487 491.9 65.2147C493.134 65.856 494.108 66.8303 494.823 68.1377C495.539 69.445 495.896 71.036 495.896 72.9107V84.8617H492.566V73.3917C492.566 71.369 492.061 69.8273 491.049 68.7667C490.063 67.6813 488.718 67.1387 487.016 67.1387C485.265 67.1387 483.871 67.706 482.835 68.8407C481.799 69.9507 481.281 71.5663 481.281 73.6877V84.8617H477.951V73.3917C477.951 71.369 477.446 69.8273 476.434 68.7667C475.448 67.6813 474.103 67.1387 472.401 67.1387C470.65 67.1387 469.256 67.706 468.22 68.8407C467.184 69.9507 466.666 71.5663 466.666 73.6877V84.8617H463.299V64.5857H466.666V67.5087C467.332 66.448 468.22 65.634 469.33 65.0667C470.465 64.4993 471.711 64.2157 473.067 64.2157C474.769 64.2157 476.274 64.598 477.581 65.3627C478.889 66.1273 479.863 67.2497 480.504 68.7297C481.072 67.299 482.009 66.189 483.316 65.3997C484.624 64.6103 486.079 64.2157 487.682 64.2157ZM508.598 85.1947C506.698 85.1947 504.972 84.763 503.418 83.8997C501.888 83.0363 500.68 81.8153 499.792 80.2367C498.928 78.6333 498.497 76.7833 498.497 74.6867C498.497 72.6147 498.941 70.7893 499.829 69.2107C500.741 67.6073 501.975 66.3863 503.529 65.5477C505.083 64.6843 506.822 64.2527 508.746 64.2527C510.67 64.2527 512.409 64.6843 513.963 65.5477C515.517 66.3863 516.738 67.595 517.626 69.1737C518.538 70.7523 518.995 72.59 518.995 74.6867C518.995 76.7833 518.526 78.6333 517.589 80.2367C516.676 81.8153 515.43 83.0363 513.852 83.8997C512.273 84.763 510.522 85.1947 508.598 85.1947ZM508.598 82.2347C509.806 82.2347 510.941 81.951 512.002 81.3837C513.062 80.8163 513.913 79.9653 514.555 78.8307C515.221 77.696 515.554 76.3147 515.554 74.6867C515.554 73.0587 515.233 71.6773 514.592 70.5427C513.95 69.408 513.112 68.5693 512.076 68.0267C511.04 67.4593 509.917 67.1757 508.709 67.1757C507.475 67.1757 506.341 67.4593 505.305 68.0267C504.293 68.5693 503.479 69.408 502.863 70.5427C502.246 71.6773 501.938 73.0587 501.938 74.6867C501.938 76.3393 502.234 77.733 502.826 78.8677C503.442 80.0023 504.256 80.8533 505.268 81.4207C506.279 81.9633 507.389 82.2347 508.598 82.2347ZM205.336 101.194V131.862H201.332V101.194H205.336ZM221.928 107.31C224.862 107.31 227.238 108.204 229.056 109.994C230.875 111.754 231.784 114.306 231.784 117.65V131.862H227.824V118.222C227.824 115.816 227.223 113.983 226.02 112.722C224.818 111.431 223.175 110.786 221.092 110.786C218.98 110.786 217.294 111.446 216.032 112.766C214.8 114.086 214.184 116.007 214.184 118.53V131.862H210.18V107.75H214.184V111.182C214.976 109.95 216.047 108.996 217.396 108.322C218.775 107.647 220.286 107.31 221.928 107.31ZM273.067 131.862H265.543L252.959 112.81V131.862H245.435V100.974H252.959L265.543 120.114V100.974H273.067V131.862ZM299.685 119.19C299.685 119.894 299.641 120.627 299.553 121.39H282.525C282.643 122.915 283.127 124.088 283.977 124.91C284.857 125.702 285.928 126.098 287.189 126.098C289.067 126.098 290.372 125.306 291.105 123.722H299.113C298.703 125.335 297.955 126.787 296.869 128.078C295.813 129.368 294.479 130.38 292.865 131.114C291.252 131.847 289.448 132.214 287.453 132.214C285.048 132.214 282.907 131.7 281.029 130.674C279.152 129.647 277.685 128.18 276.629 126.274C275.573 124.367 275.045 122.138 275.045 119.586C275.045 117.034 275.559 114.804 276.585 112.898C277.641 110.991 279.108 109.524 280.985 108.498C282.863 107.471 285.019 106.958 287.453 106.958C289.829 106.958 291.941 107.456 293.789 108.454C295.637 109.451 297.075 110.874 298.101 112.722C299.157 114.57 299.685 116.726 299.685 119.19ZM291.985 117.21C291.985 115.919 291.545 114.892 290.665 114.13C289.785 113.367 288.685 112.986 287.365 112.986C286.104 112.986 285.033 113.352 284.153 114.086C283.303 114.819 282.775 115.86 282.569 117.21H291.985ZM316.195 131.862L311.487 125.042L307.527 131.862H299.387L307.483 119.322L299.167 107.31H307.615L312.323 114.086L316.283 107.31H324.423L316.195 119.674L324.643 131.862H316.195ZM339.246 125.482V131.862H335.418C332.69 131.862 330.563 131.202 329.038 129.882C327.512 128.532 326.75 126.347 326.75 123.326V113.558H323.758V107.31H326.75V101.326H334.274V107.31H339.202V113.558H334.274V123.414C334.274 124.147 334.45 124.675 334.802 124.998C335.154 125.32 335.74 125.482 336.562 125.482H339.246ZM360.817 100.974V122.006C360.817 125.262 359.893 127.77 358.045 129.53C356.226 131.29 353.762 132.17 350.653 132.17C347.397 132.17 344.786 131.246 342.821 129.398C340.855 127.55 339.873 124.924 339.873 121.522H347.353C347.353 122.812 347.617 123.795 348.145 124.47C348.673 125.115 349.435 125.438 350.433 125.438C351.342 125.438 352.046 125.144 352.545 124.558C353.043 123.971 353.293 123.12 353.293 122.006V100.974H360.817ZM376.09 132.17C373.832 132.17 371.808 131.803 370.018 131.07C368.229 130.336 366.792 129.251 365.706 127.814C364.65 126.376 364.093 124.646 364.034 122.622H372.042C372.16 123.766 372.556 124.646 373.23 125.262C373.905 125.848 374.785 126.142 375.87 126.142C376.985 126.142 377.865 125.892 378.51 125.394C379.156 124.866 379.478 124.147 379.478 123.238C379.478 122.475 379.214 121.844 378.686 121.346C378.188 120.847 377.557 120.436 376.794 120.114C376.061 119.791 375.005 119.424 373.626 119.014C371.632 118.398 370.004 117.782 368.742 117.166C367.481 116.55 366.396 115.64 365.486 114.438C364.577 113.235 364.122 111.666 364.122 109.73C364.122 106.855 365.164 104.611 367.246 102.998C369.329 101.355 372.042 100.534 375.386 100.534C378.789 100.534 381.532 101.355 383.614 102.998C385.697 104.611 386.812 106.87 386.958 109.774H378.818C378.76 108.776 378.393 107.999 377.718 107.442C377.044 106.855 376.178 106.562 375.122 106.562C374.213 106.562 373.48 106.811 372.922 107.31C372.365 107.779 372.086 108.468 372.086 109.378C372.086 110.375 372.556 111.152 373.494 111.71C374.433 112.267 375.9 112.868 377.894 113.514C379.889 114.188 381.502 114.834 382.734 115.45C383.996 116.066 385.081 116.96 385.99 118.134C386.9 119.307 387.354 120.818 387.354 122.666C387.354 124.426 386.9 126.024 385.99 127.462C385.11 128.899 383.82 130.043 382.118 130.894C380.417 131.744 378.408 132.17 376.09 132.17ZM413.101 131.862L406.677 120.202H404.873V131.862H397.349V100.974H409.977C412.411 100.974 414.479 101.399 416.181 102.25C417.911 103.1 419.202 104.274 420.053 105.77C420.903 107.236 421.329 108.879 421.329 110.698C421.329 112.751 420.742 114.584 419.569 116.198C418.425 117.811 416.723 118.955 414.465 119.63L421.593 131.862H413.101ZM404.873 114.878H409.537C410.915 114.878 411.942 114.54 412.617 113.866C413.321 113.191 413.673 112.238 413.673 111.006C413.673 109.832 413.321 108.908 412.617 108.234C411.942 107.559 410.915 107.222 409.537 107.222H404.873V114.878ZM447.216 119.19C447.216 119.894 447.172 120.627 447.084 121.39H430.056C430.173 122.915 430.657 124.088 431.508 124.91C432.388 125.702 433.459 126.098 434.72 126.098C436.597 126.098 437.903 125.306 438.636 123.722H446.644C446.233 125.335 445.485 126.787 444.4 128.078C443.344 129.368 442.009 130.38 440.396 131.114C438.783 131.847 436.979 132.214 434.984 132.214C432.579 132.214 430.437 131.7 428.56 130.674C426.683 129.647 425.216 128.18 424.16 126.274C423.104 124.367 422.576 122.138 422.576 119.586C422.576 117.034 423.089 114.804 424.116 112.898C425.172 110.991 426.639 109.524 428.516 108.498C430.393 107.471 432.549 106.958 434.984 106.958C437.36 106.958 439.472 107.456 441.32 108.454C443.168 109.451 444.605 110.874 445.632 112.722C446.688 114.57 447.216 116.726 447.216 119.19ZM439.516 117.21C439.516 115.919 439.076 114.892 438.196 114.13C437.316 113.367 436.216 112.986 434.896 112.986C433.635 112.986 432.564 113.352 431.684 114.086C430.833 114.819 430.305 115.86 430.1 117.21H439.516ZM447.709 119.542C447.709 117.019 448.178 114.804 449.117 112.898C450.085 110.991 451.39 109.524 453.033 108.498C454.676 107.471 456.509 106.958 458.533 106.958C460.264 106.958 461.774 107.31 463.065 108.014C464.385 108.718 465.397 109.642 466.101 110.786V107.31H473.625V131.862H466.101V128.386C465.368 129.53 464.341 130.454 463.021 131.158C461.73 131.862 460.22 132.214 458.489 132.214C456.494 132.214 454.676 131.7 453.033 130.674C451.39 129.618 450.085 128.136 449.117 126.23C448.178 124.294 447.709 122.064 447.709 119.542ZM466.101 119.586C466.101 117.708 465.573 116.227 464.517 115.142C463.49 114.056 462.229 113.514 460.733 113.514C459.237 113.514 457.961 114.056 456.905 115.142C455.878 116.198 455.365 117.664 455.365 119.542C455.365 121.419 455.878 122.915 456.905 124.03C457.961 125.115 459.237 125.658 460.733 125.658C462.229 125.658 463.49 125.115 464.517 124.03C465.573 122.944 466.101 121.463 466.101 119.586ZM475.592 119.586C475.592 117.034 476.106 114.804 477.132 112.898C478.188 110.991 479.64 109.524 481.488 108.498C483.366 107.471 485.507 106.958 487.912 106.958C490.992 106.958 493.559 107.764 495.612 109.378C497.695 110.991 499.059 113.264 499.704 116.198H491.696C491.022 114.32 489.716 113.382 487.78 113.382C486.402 113.382 485.302 113.924 484.48 115.01C483.659 116.066 483.248 117.591 483.248 119.586C483.248 121.58 483.659 123.12 484.48 124.206C485.302 125.262 486.402 125.79 487.78 125.79C489.716 125.79 491.022 124.851 491.696 122.974H499.704C499.059 125.848 497.695 128.107 495.612 129.75C493.53 131.392 490.963 132.214 487.912 132.214C485.507 132.214 483.366 131.7 481.488 130.674C479.64 129.647 478.188 128.18 477.132 126.274C476.106 124.367 475.592 122.138 475.592 119.586ZM515.433 125.482V131.862H511.605C508.877 131.862 506.75 131.202 505.225 129.882C503.7 128.532 502.937 126.347 502.937 123.326V113.558H499.945V107.31H502.937V101.326H510.461V107.31H515.389V113.558H510.461V123.414C510.461 124.147 510.637 124.675 510.989 124.998C511.341 125.32 511.928 125.482 512.749 125.482H515.433Z" fill="#16193A"/>
<defs>
<clipPath id="clip0_2_11">
<rect width="148.932" height="133.029" fill="white" transform="translate(0 83.6755) rotate(-34.1829)"/>
</clipPath>
</defs>
</svg>
